<?xml version="1.0" standalone="no"?>
<!DOCTYPE svg PUBLIC "-//W3C//DTD SVG 20010904//EN"
 "http://www.w3.org/TR/2001/REC-SVG-20010904/DTD/svg10.dtd">
<svg version="1.0" xmlns="http://www.w3.org/2000/svg"
 width="739.000000pt" height="734.000000pt" viewBox="0 0 739.000000 734.000000"
 preserveAspectRatio="xMidYMid meet">

<g transform="translate(0.000000,734.000000) scale(0.100000,-0.100000)"
fill="#000000" stroke="none">
<path d="M4842 7325 c-65 -47 -90 -176 -102 -540 -9 -282 -15 -324 -66 -465
-50 -141 -131 -282 -294 -516 -108 -153 -163 -257 -180 -340 -8 -37 -15 -52
-23 -47 -7 3 -64 43 -127 89 -239 170 -378 208 -524 141 -149 -69 -227 -226
-197 -399 12 -72 13 -163 2 -191 -6 -16 -15 -12 -81 35 -163 117 -203 245
-220 693 -13 345 -35 488 -99 629 -22 49 -26 68 -19 96 9 41 2 112 -17 157
-19 44 -101 131 -147 154 -49 25 -52 18 -46 -99 3 -67 11 -101 32 -149 33 -72
57 -98 111 -116 37 -13 42 -18 62 -80 46 -135 55 -222 58 -557 3 -343 12 -426
61 -560 37 -99 92 -157 205 -216 49 -26 89 -51 89 -55 0 -4 -12 -10 -27 -14
-43 -10 -199 -86 -298 -144 -188 -111 -385 -277 -508 -428 l-50 -63 -17 38
c-22 49 -85 105 -143 127 -103 39 -284 1 -418 -88 -378 -251 -778 -917 -1224
-2037 -62 -157 -132 -338 -156 -403 -23 -64 -44 -115 -46 -113 -5 5 15 83 183
726 185 706 214 817 382 1435 81 299 146 560 147 585 0 38 -4 46 -27 59 -49
28 -71 -1 -200 -260 -64 -129 -117 -241 -117 -250 -1 -19 30 -49 49 -49 7 0
21 7 31 16 17 15 18 14 9 -17 -131 -489 -447 -1696 -534 -2034 -327 -1281
-371 -1478 -336 -1520 15 -18 73 -20 88 -2 6 6 40 116 75 242 336 1185 800
2306 1231 2970 256 395 537 635 748 639 53 1 72 -3 94 -20 44 -32 63 -65 74
-126 11 -56 10 -59 -30 -138 -57 -114 -98 -241 -109 -345 -10 -81 -15 -96 -67
-184 -165 -278 -399 -568 -826 -1025 -103 -110 -128 -142 -128 -166 0 -30 30
-60 60 -60 8 0 42 18 75 41 83 56 310 169 427 213 113 42 317 100 325 93 3 -3
-1 -63 -8 -134 -14 -127 -19 -515 -9 -687 l5 -90 -60 -34 c-130 -75 -438 -271
-600 -380 -730 -494 -1070 -862 -1024 -1106 32 -172 220 -276 446 -246 378 51
884 394 1305 884 66 76 125 147 131 158 7 10 14 18 18 18 3 0 22 -24 43 -54
77 -111 194 -202 305 -236 199 -62 477 28 759 247 111 85 347 320 444 443 458
574 758 1304 818 1990 5 63 10 157 10 209 0 92 0 93 23 87 12 -3 65 -6 117 -6
l95 0 24 -62 c109 -286 269 -486 403 -504 124 -17 198 70 183 214 l-7 66 39
-35 c140 -127 361 -216 514 -207 59 3 72 8 99 33 16 16 30 35 30 42 0 8 -21
23 -46 34 -26 11 -45 21 -43 23 2 2 40 -1 84 -7 133 -17 297 15 357 70 19 17
24 58 8 68 -5 3 -98 28 -206 55 -325 82 -535 178 -766 352 -245 184 -447 424
-543 643 l-27 60 56 -53 c144 -136 348 -161 545 -67 89 43 172 123 209 202 21
46 27 74 28 134 0 65 4 81 26 110 63 84 78 172 37 223 -12 15 -18 31 -13 35 5
4 35 27 67 50 144 109 197 272 110 341 l-26 21 35 37 c51 53 80 116 86 188 6
74 -9 124 -48 160 l-28 27 38 51 c56 74 80 132 80 196 0 60 -25 114 -57 124
-18 6 -17 11 16 78 33 65 36 79 35 152 -1 89 -20 146 -68 203 -25 30 -26 34
-15 77 6 25 8 62 4 82 -7 42 -45 84 -75 84 -11 0 -20 1 -20 3 0 1 7 27 15 57
19 70 19 100 0 147 -19 47 -47 65 -96 65 -51 -1 -86 -21 -141 -80 -59 -63 -92
-130 -162 -326 -69 -193 -112 -299 -172 -419 -51 -102 -125 -227 -135 -227 -3
0 -9 43 -12 96 -7 116 -41 200 -88 218 -29 10 -29 12 -29 90 0 59 -5 90 -20
121 -22 44 -60 70 -91 60 -17 -6 -19 -1 -19 56 0 106 -51 179 -114 163 l-24
-6 19 79 c22 91 24 141 5 165 -19 26 -67 32 -94 13z m69 -49 c9 -19 6 -52 -15
-155 -26 -125 -32 -256 -13 -256 5 0 9 33 10 73 2 64 5 76 26 93 29 24 36 24
60 -2 30 -32 35 -95 23 -259 -10 -134 -6 -207 13 -282 14 -56 20 -25 20 115 1
78 4 158 8 179 12 61 54 61 83 0 15 -31 16 -54 8 -186 -10 -187 -7 -266 11
-333 19 -66 38 -81 28 -21 -9 51 -8 266 1 304 l7 27 24 -23 c12 -12 28 -41 34
-65 15 -58 33 -274 24 -288 -57 -98 -262 -311 -448 -467 -226 -189 -323 -306
-372 -449 -38 -111 -26 -225 31 -296 32 -39 44 -26 20 22 -14 27 -19 60 -19
114 0 67 4 83 39 155 32 64 59 99 140 180 56 55 148 136 206 179 119 89 291
253 386 366 183 219 305 456 427 829 46 140 94 274 106 297 27 54 76 110 112
129 37 19 45 18 69 -6 41 -41 12 -194 -61 -329 -31 -58 -35 -71 -20 -71 5 0
26 28 47 63 48 80 63 97 86 97 24 0 41 -44 33 -84 -4 -17 -38 -97 -76 -177
-43 -91 -75 -175 -85 -220 -22 -106 -2 -139 25 -39 7 25 45 108 86 184 l73
139 21 -33 c47 -79 52 -199 11 -281 -13 -24 -53 -86 -91 -137 -65 -89 -99
-163 -99 -218 0 -43 18 -34 35 16 17 53 94 164 124 180 13 6 25 4 39 -6 18
-12 22 -25 22 -65 0 -60 -17 -96 -104 -219 -75 -105 -111 -177 -127 -250 -19
-90 -2 -92 36 -5 33 75 93 175 106 175 3 0 14 -9 25 -21 15 -17 19 -36 19 -93
-1 -102 -31 -155 -137 -244 -97 -80 -136 -132 -154 -204 -20 -77 -2 -78 35 -3
23 47 47 77 88 110 30 25 61 45 69 45 27 0 54 -39 54 -76 0 -78 -49 -138 -206
-254 -123 -91 -201 -171 -242 -248 -18 -33 -32 -63 -32 -66 0 -18 22 0 63 52
49 63 175 172 199 172 23 0 38 -22 38 -56 0 -47 -14 -77 -56 -124 -52 -57
-106 -93 -214 -140 -90 -38 -167 -87 -156 -97 9 -9 239 68 294 98 l52 29 0
-37 c0 -49 -38 -130 -85 -181 -100 -112 -286 -177 -436 -153 -118 19 -203 76
-297 196 l-23 30 6 -57 c16 -174 160 -421 365 -626 292 -293 614 -457 1070
-547 47 -9 89 -21 94 -25 11 -11 -39 -36 -111 -56 -73 -19 -257 -20 -336 -1
-71 18 -118 49 -224 151 -46 43 -83 75 -83 69 0 -16 94 -121 161 -179 35 -30
97 -76 138 -102 69 -43 72 -46 50 -55 -58 -22 -233 14 -354 73 -133 65 -209
130 -363 310 -31 35 -52 37 -34 3 6 -10 34 -49 62 -88 l52 -70 -5 -76 c-9
-117 -33 -159 -88 -159 -112 0 -239 161 -425 538 -58 116 -109 212 -114 212
-5 0 0 -31 11 -70 10 -38 19 -72 19 -75 0 -3 -44 -4 -97 -3 l-98 3 -8 84 c-25
277 -131 574 -270 756 -131 171 -338 295 -540 324 -57 8 -70 14 -105 49 -76
76 -178 77 -296 4 -40 -24 -39 -20 2 36 13 17 20 32 16 32 -5 0 -26 -24 -47
-53 l-38 -52 0 95 c0 184 2 212 23 267 66 177 252 243 432 154 34 -17 108 -67
166 -111 146 -112 246 -178 288 -190 77 -21 117 -6 110 41 -4 26 -20 36 -69
44 -19 3 -43 11 -52 18 -16 11 -16 17 -2 70 22 85 67 167 171 312 176 248 266
407 319 570 42 131 55 238 55 475 0 279 16 413 56 478 19 29 52 28 65 -2z
m-1278 -2203 l32 -17 -120 -19 c-140 -23 -187 -26 -192 -12 -2 6 27 23 64 37
81 32 167 37 216 11z m95 -135 c5 -7 22 -69 37 -138 127 -582 364 -903 748
-1015 l57 -16 0 -82 c0 -817 -387 -1744 -990 -2371 -213 -222 -479 -396 -682
-448 -168 -42 -296 -14 -413 94 -62 57 -158 194 -148 211 3 7 27 44 53 82 183
276 324 584 361 789 l13 69 191 92 c104 51 213 100 240 110 68 25 79 36 61 60
-13 18 -16 18 -82 -10 -38 -16 -142 -63 -231 -106 l-163 -78 0 89 c0 332 -186
548 -498 576 l-73 7 6 31 c24 119 101 416 108 416 2 0 27 -23 57 -51 111 -104
258 -186 449 -249 123 -41 331 -87 436 -97 60 -5 64 -4 80 21 16 24 16 28 1
51 -9 14 -26 27 -39 29 -12 3 -83 17 -158 31 -225 42 -432 115 -564 200 -68
43 -167 135 -195 181 l-20 31 35 89 c89 223 228 480 335 622 69 92 78 134 35
154 -16 7 -32 8 -45 2 -55 -25 -261 -351 -356 -563 -34 -76 -62 -127 -67 -122
-5 5 6 42 26 88 74 164 107 272 122 406 6 52 14 68 80 156 180 239 481 468
763 581 57 23 107 39 110 35 4 -3 7 -75 7 -158 1 -191 21 -259 85 -292 38 -19
44 -8 16 29 -35 46 -38 66 -41 230 -1 83 -5 165 -9 182 l-8 32 68 11 c67 11
110 16 165 19 15 1 31 -4 37 -10z m166 -18 c219 -56 401 -216 516 -455 76
-156 126 -333 145 -514 l7 -63 -33 7 c-64 13 -178 66 -246 114 -203 143 -347
390 -448 772 -37 142 -40 159 -27 159 5 0 43 -9 86 -20z m-1687 -1607 c-38
-125 -88 -317 -107 -419 l-12 -62 -60 -12 c-81 -15 -255 -70 -353 -110 -44
-17 -87 -35 -95 -38 -8 -3 37 52 101 124 168 187 327 388 437 553 l96 143 15
-31 c13 -29 12 -38 -22 -148z m203 -631 c174 -68 263 -261 230 -497 l-12 -84
-166 -90 c-92 -50 -199 -108 -238 -130 l-71 -40 -7 91 c-14 197 -4 454 26 687
l12 93 85 -4 c54 -3 107 -13 141 -26z m195 -684 c-14 -64 -78 -225 -141 -353
-53 -110 -165 -298 -194 -329 -17 -17 -86 251 -106 410 l-6 52 73 43 c134 79
364 207 372 208 5 1 5 -14 2 -31z m-541 -340 c12 -92 54 -254 91 -354 20 -52
34 -102 31 -109 -14 -38 -230 -290 -361 -421 -296 -297 -575 -494 -855 -602
-205 -79 -375 -73 -469 18 -66 64 -68 151 -6 268 127 241 465 546 1011 912
222 149 523 339 540 339 6 1 15 -23 18 -51z"/>
<path d="M3622 5359 c-30 -21 -59 -40 -65 -42 -7 -2 -9 -8 -5 -11 9 -11 89 27
112 52 34 38 12 39 -42 1z"/>
<path d="M3149 6640 c-45 -23 -116 -100 -136 -148 -19 -45 -22 -149 -5 -179
11 -19 16 -21 40 -12 42 16 99 77 123 133 24 55 38 183 23 209 -8 13 -13 13
-45 -3z"/>
<path d="M3274 6376 c-65 -30 -127 -86 -161 -144 -22 -36 -28 -62 -31 -129 -4
-65 -2 -83 9 -84 117 -10 245 145 257 312 5 80 4 81 -74 45z"/>
<path d="M2592 6344 c-60 -16 -92 -31 -92 -43 0 -19 86 -85 146 -113 81 -38
162 -43 214 -12 23 13 36 29 38 46 6 54 -131 139 -222 137 -17 0 -55 -7 -84
-15z"/>
<path d="M3310 6018 c-78 -30 -163 -117 -184 -188 -9 -30 -16 -68 -16 -87 0
-27 5 -34 26 -39 72 -18 147 19 209 104 37 51 85 168 85 208 0 21 -5 24 -32
23 -18 0 -58 -10 -88 -21z"/>
<path d="M2595 5993 c-55 -12 -85 -26 -85 -39 0 -24 114 -128 176 -159 43 -22
76 -31 125 -33 62 -4 69 -2 98 24 31 29 31 29 14 62 -27 55 -105 117 -171 136
-56 15 -114 19 -157 9z"/>
<path d="M3287 5656 c-85 -31 -138 -96 -152 -188 -6 -40 -4 -48 14 -57 25 -14
75 5 108 40 29 32 70 123 78 177 7 46 6 47 -48 28z"/>
<path d="M2613 5593 c-24 -8 -43 -21 -43 -28 0 -21 79 -85 145 -116 76 -37
158 -40 199 -8 14 11 26 27 26 35 0 23 -72 96 -115 115 -49 23 -152 24 -212 2z"/>
<path d="M7300 1484 c-98 -32 -354 -95 -520 -128 -601 -119 -1948 -313 -2845
-411 -491 -53 -576 -63 -624 -77 -49 -15 -73 -40 -54 -59 20 -20 315 -9 431
16 14 4 22 13 22 25 0 11 2 20 4 20 61 0 916 106 1416 176 1150 160 1779 270
2108 370 131 40 155 51 149 67 -5 18 -36 18 -87 1z"/>
</g>
</svg>
